<svg width="56" height="63" viewBox="0 0 56 63" fill="none" xmlns="http://www.w3.org/2000/svg">
<path d="M51.1607 0.21875C49.2107 0.21875 35.5607 4.12891 35.5607 21.7246V35.4102C35.5607 39.7236 39.0585 43.2305 43.3607 43.2305H47.2607V58.8711C47.2607 61.0339 49.0035 62.7813 51.1607 62.7813C53.3179 62.7813 55.0607 61.0339 55.0607 58.8711V43.2305V29.5449V4.12891C55.0607 1.9661 53.3179 0.21875 51.1607 0.21875ZM8.26069 2.17383C8.26069 1.17185 7.51726 0.340942 6.51788 0.230969C5.51851 0.120996 4.62882 0.780835 4.40944 1.74615L0.716631 18.401C0.546006 19.1708 0.460693 19.9528 0.460693 20.7349C0.460693 26.3435 4.73851 30.9501 10.2107 31.4511V58.8711C10.2107 61.0339 11.9535 62.7813 14.1107 62.7813C16.2679 62.7813 18.0107 61.0339 18.0107 58.8711V31.4511C23.4829 30.9501 27.7607 26.3435 27.7607 20.7349C27.7607 19.9528 27.6754 19.1708 27.5048 18.401L23.8119 1.74615C23.5926 0.768616 22.6785 0.120996 21.6913 0.230969C20.7041 0.340942 19.9607 1.17185 19.9607 2.17383V18.572C19.9607 19.2319 19.4244 19.7695 18.7663 19.7695C18.1448 19.7695 17.6329 19.293 17.5719 18.6698L16.0485 2.00276C15.9632 0.988562 15.1223 0.21875 14.1107 0.21875C13.0991 0.21875 12.2582 0.988562 12.1729 2.00276L10.6616 18.6698C10.6007 19.293 10.0888 19.7695 9.46726 19.7695C8.80913 19.7695 8.27288 19.2319 8.27288 18.572L8.26069 2.17383ZM14.1473 20.7471H14.1107H14.0741L14.1107 20.6615L14.1473 20.7471Z" fill="#CCFB5E"/>
</svg>
